<svg width="45" height="45" viewBox="0 0 45 45" fill="none" xmlns="http://www.w3.org/2000/svg">
<path d="M22.5 3.75C12.1444 3.75 3.75 12.1444 3.75 22.5C3.75 32.8556 12.1444 41.25 22.5 41.25C32.8556 41.25 41.25 32.8556 41.25 22.5C41.25 12.1444 32.8556 3.75 22.5 3.75Z" stroke="white" stroke-width="2" stroke-linecap="round" stroke-linejoin="round"/>
<path d="M8.00806 34.3988C8.00806 34.3988 12.1874 29.0625 22.4999 29.0625C32.8124 29.0625 36.9937 34.3988 36.9937 34.3988M22.4999 22.5C23.9918 22.5 25.4225 21.9074 26.4774 20.8525C27.5323 19.7976 28.1249 18.3668 28.1249 16.875C28.1249 15.3832 27.5323 13.9524 26.4774 12.8975C25.4225 11.8426 23.9918 11.25 22.4999 11.25C21.0081 11.25 19.5773 11.8426 18.5225 12.8975C17.4676 13.9524 16.8749 15.3832 16.8749 16.875C16.8749 18.3668 17.4676 19.7976 18.5225 20.8525C19.5773 21.9074 21.0081 22.5 22.4999 22.5Z" stroke="white" stroke-width="2" stroke-linecap="round" stroke-linejoin="round"/>
</svg>
