<svg width="45" height="45" viewBox="0 0 45 45" fill="none" xmlns="http://www.w3.org/2000/svg">
<g clip-path="url(#clip0_6_1042)">
<path d="M24.9356 5.9025L41.1243 33.9412C41.3712 34.3688 41.5011 34.8538 41.5011 35.3475C41.5011 35.8412 41.3712 36.3262 41.1244 36.7537C40.8775 37.1813 40.5225 37.5363 40.0949 37.7832C39.6674 38.03 39.1824 38.16 38.6887 38.16H6.31121C5.81752 38.16 5.33253 38.03 4.90498 37.7832C4.47744 37.5363 4.1224 37.1813 3.87556 36.7537C3.62872 36.3262 3.49878 35.8412 3.49878 35.3475C3.49878 34.8538 3.62874 34.3688 3.87558 33.9412L20.0643 5.9025C21.1462 4.0275 23.8518 4.0275 24.9356 5.9025ZM22.5 28.125C22.0027 28.125 21.5258 28.3225 21.1741 28.6742C20.8225 29.0258 20.625 29.5027 20.625 30C20.625 30.4973 20.8225 30.9742 21.1741 31.3258C21.5258 31.6775 22.0027 31.875 22.5 31.875C22.9972 31.875 23.4742 31.6775 23.8258 31.3258C24.1774 30.9742 24.375 30.4973 24.375 30C24.375 29.5027 24.1774 29.0258 23.8258 28.6742C23.4742 28.3225 22.9972 28.125 22.5 28.125ZM22.5 15C22.0407 15.0001 21.5975 15.1687 21.2543 15.4738C20.9111 15.779 20.6918 16.1995 20.6381 16.6556L20.625 16.875V24.375C20.6255 24.8529 20.8085 25.3126 21.1365 25.6601C21.4646 26.0076 21.913 26.2167 22.3901 26.2447C22.8672 26.2727 23.3369 26.1175 23.7034 25.8107C24.0699 25.504 24.3054 25.0689 24.3618 24.5944L24.375 24.375V16.875C24.375 16.3777 24.1774 15.9008 23.8258 15.5492C23.4742 15.1975 22.9972 15 22.5 15Z" fill="#E40613"/>
</g>
<defs>
<clipPath id="clip0_6_1042">
<rect width="45" height="45" fill="white"/>
</clipPath>
</defs>
</svg>
